<?xml version="1.0" encoding="UTF-8" standalone="no"?> <svg xmlns="http://www.w3.org/2000/svg" viewBox="0 0 64 64"><g id="pharmacist-purchaser-computer-desk-counter"><path d="M61,36H59V29a3.009,3.009,0,0,0-3-3H46a3.009,3.009,0,0,0-3,3v7H41V31a7.019,7.019,0,0,0-4.43-6.51A4.98,4.98,0,0,0,38,21V17a5,5,0,0,0-5-5H31a5,5,0,0,0-5,5v4a4.98,4.98,0,0,0,1.43,3.49A7.019,7.019,0,0,0,23,31v5H20V35a6.981,6.981,0,0,0-3-5.72V22A6,6,0,0,0,5,22v7.28A6.981,6.981,0,0,0,2,35v6a1,1,0,0,0,1,1H5.56l-2.5,6.65A1.005,1.005,0,0,0,4,50H6V61a1,1,0,0,0,1,1H59a1,1,0,0,0,1-1V42h1a1,1,0,0,0,1-1V37A1,1,0,0,0,61,36ZM45,29a1,1,0,0,1,1-1H56a1,1,0,0,1,1,1v7H45ZM31,14h2a3,3,0,0,1,2.96,2.6l-1.64-.55a1.032,1.032,0,0,0-.46-.04l-5.84.83A2.988,2.988,0,0,1,31,14Zm-3,4.87,5.91-.85,2.09.7V21a3.009,3.009,0,0,1-3,3H31a3.009,3.009,0,0,1-3-3ZM33,26v4.59l-1,1-1-1V26Zm-8,5a5.017,5.017,0,0,1,4-4.9V31a1.033,1.033,0,0,0,.29.71l2,2a1.014,1.014,0,0,0,1.42,0l2-2A1.033,1.033,0,0,0,35,31V26.1A5.017,5.017,0,0,1,39,31v5H25ZM7,22a4,4,0,0,1,8,0V32H7ZM4,40V35a4.979,4.979,0,0,1,1-2.99V33a1,1,0,0,0,1,1H16a1,1,0,0,0,1-1v-.99A4.979,4.979,0,0,1,18,35v5H16V36H14v4H8V36H6v4Zm6,20H8V50h2Zm4,0H12V50h2ZM5.44,48l2.25-6h6.62l2.25,6ZM58,60H16V50h2a1.005,1.005,0,0,0,.94-1.35L16.44,42H58Zm2-20H20V38H60Z"/><rect x="50" y="31" width="2" height="2"/><path d="M45,12h3v3a1,1,0,0,0,1,1h4a1,1,0,0,0,1-1V12h3a1,1,0,0,0,1-1V7a1,1,0,0,0-1-1H54V3a1,1,0,0,0-1-1H49a1,1,0,0,0-1,1V6H45a1,1,0,0,0-1,1v4A1,1,0,0,0,45,12Zm1-4h3a1,1,0,0,0,1-1V4h2V7a1,1,0,0,0,1,1h3v2H53a1,1,0,0,0-1,1v3H50V11a1,1,0,0,0-1-1H46Z"/><path d="M3,12H25a1,1,0,0,0,1-1V3a1,1,0,0,0-1-1H3A1,1,0,0,0,2,3v8A1,1,0,0,0,3,12ZM4,4H24v6H4Z"/></g></svg>