<?xml version="1.0" encoding="utf-8"?>
<svg viewBox="0 0 270 51" xmlns="http://www.w3.org/2000/svg">
  <path
    d="M 89.301 95.565 C 90.174 95.565 90.951 95.768 91.631 96.175 C 92.311 96.575 92.841 97.125 93.221 97.825 C 93.601 98.525 93.791 99.312 93.791 100.185 L 93.791 100.445 C 93.791 101.318 93.601 102.108 93.221 102.815 C 92.841 103.522 92.311 104.075 91.631 104.475 C 90.951 104.875 90.174 105.075 89.301 105.075 L 85.941 105.075 L 85.941 109.605 L 81.431 109.605 L 81.431 95.565 L 89.301 95.565 Z M 85.941 98.895 L 85.941 101.795 L 87.791 101.795 C 88.271 101.795 88.631 101.672 88.871 101.425 C 89.104 101.178 89.221 100.845 89.221 100.425 L 89.221 100.265 C 89.221 99.825 89.104 99.488 88.871 99.255 C 88.631 99.015 88.271 98.895 87.791 98.895 L 85.941 98.895 ZM 109.48 99.875 C 109.48 100.728 109.25 101.502 108.79 102.195 C 108.323 102.895 107.65 103.405 106.77 103.725 L 109.89 109.605 L 104.83 109.605 L 102.34 104.485 L 100.67 104.485 L 100.67 109.605 L 96.16 109.605 L 96.16 95.565 L 104.75 95.565 C 105.756 95.565 106.616 95.762 107.33 96.155 C 108.043 96.542 108.58 97.065 108.94 97.725 C 109.3 98.385 109.48 99.102 109.48 99.875 Z M 104.89 100.055 C 104.89 99.688 104.766 99.382 104.52 99.135 C 104.28 98.895 103.983 98.775 103.63 98.775 L 100.67 98.775 L 100.67 101.365 L 103.63 101.365 C 103.983 101.365 104.28 101.238 104.52 100.985 C 104.766 100.732 104.89 100.422 104.89 100.055 ZM 118.664 95.325 C 121.084 95.325 122.954 95.945 124.274 97.185 C 125.594 98.418 126.254 100.218 126.254 102.585 C 126.254 104.952 125.594 106.755 124.274 107.995 C 122.954 109.228 121.084 109.845 118.664 109.845 C 116.244 109.845 114.377 109.232 113.064 108.005 C 111.75 106.772 111.094 104.965 111.094 102.585 C 111.094 100.205 111.75 98.402 113.064 97.175 C 114.377 95.942 116.244 95.325 118.664 95.325 Z M 118.664 98.695 C 117.697 98.695 116.96 98.985 116.454 99.565 C 115.954 100.152 115.704 100.942 115.704 101.935 L 115.704 103.245 C 115.704 104.232 115.954 105.018 116.454 105.605 C 116.96 106.192 117.697 106.485 118.664 106.485 C 119.624 106.485 120.36 106.192 120.874 105.605 C 121.38 105.018 121.634 104.232 121.634 103.245 L 121.634 101.935 C 121.634 100.942 121.38 100.152 120.874 99.565 C 120.36 98.985 119.624 98.695 118.664 98.695 ZM 142.647 109.605 L 138.717 109.605 L 132.817 102.795 L 132.817 109.605 L 128.677 109.605 L 128.677 95.565 L 132.617 95.565 L 138.507 102.485 L 138.507 95.565 L 142.647 95.565 L 142.647 109.605 ZM 159.639 103.955 C 159.639 105.875 159.036 107.338 157.829 108.345 C 156.616 109.345 154.896 109.845 152.669 109.845 C 150.436 109.845 148.713 109.345 147.499 108.345 C 146.279 107.338 145.669 105.875 145.669 103.955 L 145.669 95.565 L 150.179 95.565 L 150.179 103.895 C 150.179 104.682 150.389 105.312 150.809 105.785 C 151.229 106.252 151.843 106.485 152.649 106.485 C 153.449 106.485 154.063 106.245 154.489 105.765 C 154.923 105.292 155.139 104.668 155.139 103.895 L 155.139 95.565 L 159.639 95.565 L 159.639 103.955 ZM 175.332 99.165 L 170.742 99.165 L 170.742 109.605 L 166.232 109.605 L 166.232 99.165 L 161.622 99.165 L 161.622 95.565 L 175.332 95.565 L 175.332 99.165 ZM 190.711 99.875 C 190.711 100.728 190.481 101.502 190.021 102.195 C 189.554 102.895 188.881 103.405 188.001 103.725 L 191.121 109.605 L 186.061 109.605 L 183.571 104.485 L 181.901 104.485 L 181.901 109.605 L 177.391 109.605 L 177.391 95.565 L 185.981 95.565 C 186.987 95.565 187.847 95.762 188.561 96.155 C 189.274 96.542 189.811 97.065 190.171 97.725 C 190.531 98.385 190.711 99.102 190.711 99.875 Z M 186.121 100.055 C 186.121 99.688 185.997 99.382 185.751 99.135 C 185.511 98.895 185.214 98.775 184.861 98.775 L 181.901 98.775 L 181.901 101.365 L 184.861 101.365 C 185.214 101.365 185.511 101.238 185.751 100.985 C 185.997 100.732 186.121 100.422 186.121 100.055 ZM 197.972 109.605 L 193.462 109.605 L 193.462 95.565 L 197.972 95.565 L 197.972 109.605 ZM 214.517 99.875 C 214.517 100.728 214.287 101.502 213.827 102.195 C 213.361 102.895 212.687 103.405 211.807 103.725 L 214.927 109.605 L 209.867 109.605 L 207.377 104.485 L 205.707 104.485 L 205.707 109.605 L 201.197 109.605 L 201.197 95.565 L 209.787 95.565 C 210.794 95.565 211.654 95.762 212.367 96.155 C 213.081 96.542 213.617 97.065 213.977 97.725 C 214.337 98.385 214.517 99.102 214.517 99.875 Z M 209.927 100.055 C 209.927 99.688 209.804 99.382 209.557 99.135 C 209.317 98.895 209.021 98.775 208.667 98.775 L 205.707 98.775 L 205.707 101.365 L 208.667 101.365 C 209.021 101.365 209.317 101.238 209.557 100.985 C 209.804 100.732 209.927 100.422 209.927 100.055 Z"
    transform="matrix(1.9707551002502441, 0, 0, 2.083630084991455, -156.72885131835938, -195.75730895996094)"
    style="fill: rgb(51, 51, 51); white-space: pre;" />
  <path
    d="M 37.506 48.268 C 36.646 48.268 35.913 48.115 35.306 47.808 C 34.693 47.495 34.219 47.021 33.886 46.388 C 33.553 45.755 33.386 44.961 33.386 44.008 C 33.386 43.048 33.553 42.255 33.886 41.628 C 34.219 41.001 34.693 40.531 35.306 40.218 C 35.913 39.905 36.646 39.748 37.506 39.748 C 38.359 39.748 39.093 39.905 39.706 40.218 C 40.319 40.531 40.793 41.001 41.126 41.628 C 41.453 42.255 41.616 43.048 41.616 44.008 C 41.616 44.961 41.453 45.755 41.126 46.388 C 40.793 47.021 40.319 47.495 39.706 47.808 C 39.093 48.115 38.359 48.268 37.506 48.268 Z M 37.506 47.288 C 37.953 47.288 38.359 47.228 38.726 47.108 C 39.086 46.988 39.393 46.798 39.646 46.538 C 39.899 46.278 40.093 45.951 40.226 45.558 C 40.366 45.158 40.436 44.688 40.436 44.148 L 40.436 43.888 C 40.436 43.341 40.366 42.868 40.226 42.468 C 40.093 42.075 39.899 41.748 39.646 41.488 C 39.393 41.228 39.086 41.038 38.726 40.918 C 38.359 40.798 37.953 40.738 37.506 40.738 C 37.046 40.738 36.636 40.798 36.276 40.918 C 35.916 41.038 35.609 41.228 35.356 41.488 C 35.103 41.748 34.909 42.075 34.776 42.468 C 34.643 42.868 34.576 43.341 34.576 43.888 L 34.576 44.148 C 34.576 44.688 34.643 45.158 34.776 45.558 C 34.909 45.951 35.103 46.278 35.356 46.538 C 35.609 46.798 35.916 46.988 36.276 47.108 C 36.636 47.228 37.046 47.288 37.506 47.288 ZM 46.772 48.128 L 45.662 48.128 L 45.662 39.898 L 46.772 39.898 L 50.762 45.318 C 50.802 45.365 50.855 45.438 50.922 45.538 C 50.982 45.631 51.045 45.725 51.112 45.818 C 51.179 45.911 51.232 45.995 51.272 46.068 L 51.312 46.068 C 51.312 45.935 51.312 45.808 51.312 45.688 C 51.312 45.561 51.312 45.438 51.312 45.318 L 51.312 39.898 L 52.432 39.898 L 52.432 48.128 L 51.392 48.128 L 47.342 42.608 C 47.289 42.521 47.209 42.398 47.102 42.238 C 46.989 42.078 46.899 41.948 46.832 41.848 L 46.772 41.848 C 46.772 41.981 46.772 42.108 46.772 42.228 C 46.772 42.355 46.772 42.481 46.772 42.608 L 46.772 48.128 ZM 60.414 48.268 C 59.574 48.268 58.861 48.115 58.274 47.808 C 57.694 47.501 57.247 47.035 56.934 46.408 C 56.627 45.781 56.474 44.981 56.474 44.008 C 56.474 42.581 56.824 41.515 57.524 40.808 C 58.217 40.101 59.184 39.748 60.424 39.748 C 61.131 39.748 61.754 39.865 62.294 40.098 C 62.841 40.325 63.267 40.668 63.574 41.128 C 63.881 41.588 64.034 42.165 64.034 42.858 L 62.884 42.858 C 62.884 42.378 62.781 41.981 62.574 41.668 C 62.374 41.361 62.091 41.128 61.724 40.968 C 61.351 40.815 60.917 40.738 60.424 40.738 C 59.851 40.738 59.354 40.848 58.934 41.068 C 58.521 41.295 58.204 41.641 57.984 42.108 C 57.771 42.575 57.664 43.178 57.664 43.918 L 57.664 44.168 C 57.664 44.895 57.771 45.488 57.984 45.948 C 58.204 46.408 58.521 46.748 58.934 46.968 C 59.341 47.181 59.837 47.288 60.424 47.288 C 60.937 47.288 61.381 47.211 61.754 47.058 C 62.121 46.905 62.407 46.671 62.614 46.358 C 62.821 46.045 62.924 45.648 62.924 45.168 L 64.034 45.168 C 64.034 45.875 63.877 46.458 63.564 46.918 C 63.244 47.371 62.814 47.711 62.274 47.938 C 61.727 48.158 61.107 48.268 60.414 48.268 ZM 71.73 48.268 C 70.87 48.268 70.137 48.115 69.53 47.808 C 68.917 47.495 68.443 47.021 68.11 46.388 C 67.777 45.755 67.61 44.961 67.61 44.008 C 67.61 43.048 67.777 42.255 68.11 41.628 C 68.443 41.001 68.917 40.531 69.53 40.218 C 70.137 39.905 70.87 39.748 71.73 39.748 C 72.583 39.748 73.317 39.905 73.93 40.218 C 74.543 40.531 75.017 41.001 75.35 41.628 C 75.677 42.255 75.84 43.048 75.84 44.008 C 75.84 44.961 75.677 45.755 75.35 46.388 C 75.017 47.021 74.543 47.495 73.93 47.808 C 73.317 48.115 72.583 48.268 71.73 48.268 Z M 71.73 47.288 C 72.177 47.288 72.583 47.228 72.95 47.108 C 73.31 46.988 73.617 46.798 73.87 46.538 C 74.123 46.278 74.317 45.951 74.45 45.558 C 74.59 45.158 74.66 44.688 74.66 44.148 L 74.66 43.888 C 74.66 43.341 74.59 42.868 74.45 42.468 C 74.317 42.075 74.123 41.748 73.87 41.488 C 73.617 41.228 73.31 41.038 72.95 40.918 C 72.583 40.798 72.177 40.738 71.73 40.738 C 71.27 40.738 70.86 40.798 70.5 40.918 C 70.14 41.038 69.833 41.228 69.58 41.488 C 69.327 41.748 69.133 42.075 69 42.468 C 68.867 42.868 68.8 43.341 68.8 43.888 L 68.8 44.148 C 68.8 44.688 68.867 45.158 69 45.558 C 69.133 45.951 69.327 46.278 69.58 46.538 C 69.833 46.798 70.14 46.988 70.5 47.108 C 70.86 47.228 71.27 47.288 71.73 47.288 ZM 85.116 48.128 L 79.886 48.128 L 79.886 39.898 L 81.026 39.898 L 81.026 47.128 L 85.116 47.128 L 85.116 48.128 ZM 92.058 48.268 C 91.198 48.268 90.465 48.115 89.858 47.808 C 89.245 47.495 88.771 47.021 88.438 46.388 C 88.105 45.755 87.938 44.961 87.938 44.008 C 87.938 43.048 88.105 42.255 88.438 41.628 C 88.771 41.001 89.245 40.531 89.858 40.218 C 90.465 39.905 91.198 39.748 92.058 39.748 C 92.911 39.748 93.645 39.905 94.258 40.218 C 94.871 40.531 95.345 41.001 95.678 41.628 C 96.005 42.255 96.168 43.048 96.168 44.008 C 96.168 44.961 96.005 45.755 95.678 46.388 C 95.345 47.021 94.871 47.495 94.258 47.808 C 93.645 48.115 92.911 48.268 92.058 48.268 Z M 92.058 47.288 C 92.505 47.288 92.911 47.228 93.278 47.108 C 93.638 46.988 93.945 46.798 94.198 46.538 C 94.451 46.278 94.645 45.951 94.778 45.558 C 94.918 45.158 94.988 44.688 94.988 44.148 L 94.988 43.888 C 94.988 43.341 94.918 42.868 94.778 42.468 C 94.645 42.075 94.451 41.748 94.198 41.488 C 93.945 41.228 93.638 41.038 93.278 40.918 C 92.911 40.798 92.505 40.738 92.058 40.738 C 91.598 40.738 91.188 40.798 90.828 40.918 C 90.468 41.038 90.161 41.228 89.908 41.488 C 89.655 41.748 89.461 42.075 89.328 42.468 C 89.195 42.868 89.128 43.341 89.128 43.888 L 89.128 44.148 C 89.128 44.688 89.195 45.158 89.328 45.558 C 89.461 45.951 89.655 46.278 89.908 46.538 C 90.161 46.798 90.468 46.988 90.828 47.108 C 91.188 47.228 91.598 47.288 92.058 47.288 ZM 103.924 48.268 C 102.597 48.268 101.587 47.921 100.894 47.228 C 100.201 46.535 99.854 45.461 99.854 44.008 C 99.854 43.068 100.014 42.281 100.334 41.648 C 100.654 41.015 101.127 40.541 101.754 40.228 C 102.374 39.908 103.134 39.748 104.034 39.748 C 104.594 39.748 105.101 39.808 105.554 39.928 C 106.014 40.048 106.407 40.231 106.734 40.478 C 107.067 40.725 107.324 41.031 107.504 41.398 C 107.684 41.765 107.774 42.201 107.774 42.708 L 106.614 42.708 C 106.614 42.355 106.551 42.051 106.424 41.798 C 106.291 41.545 106.107 41.338 105.874 41.178 C 105.641 41.018 105.367 40.905 105.054 40.838 C 104.741 40.771 104.407 40.738 104.054 40.738 C 103.574 40.738 103.147 40.798 102.774 40.918 C 102.394 41.038 102.077 41.225 101.824 41.478 C 101.571 41.738 101.374 42.068 101.234 42.468 C 101.101 42.868 101.034 43.341 101.034 43.888 L 101.034 44.148 C 101.034 44.888 101.147 45.491 101.374 45.958 C 101.601 46.418 101.931 46.755 102.364 46.968 C 102.797 47.181 103.317 47.288 103.924 47.288 C 104.537 47.288 105.044 47.201 105.444 47.028 C 105.844 46.855 106.144 46.595 106.344 46.248 C 106.537 45.895 106.634 45.448 106.634 44.908 L 106.634 44.768 L 103.734 44.768 L 103.734 43.798 L 107.784 43.798 L 107.784 48.128 L 106.924 48.128 L 106.804 47.088 C 106.591 47.368 106.334 47.595 106.034 47.768 C 105.741 47.941 105.414 48.068 105.054 48.148 C 104.701 48.228 104.324 48.268 103.924 48.268 ZM 113.306 48.128 L 112.166 48.128 L 112.166 39.898 L 113.306 39.898 L 113.306 48.128 ZM 118 48.128 L 116.82 48.128 L 120.08 39.898 L 121.58 39.898 L 124.84 48.128 L 123.6 48.128 L 122.8 46.088 L 118.79 46.088 L 118 48.128 Z M 120.17 42.538 L 119.16 45.118 L 122.42 45.118 L 121.42 42.538 C 121.393 42.465 121.357 42.365 121.31 42.238 C 121.263 42.111 121.213 41.968 121.16 41.808 C 121.1 41.655 121.043 41.495 120.99 41.328 C 120.93 41.168 120.877 41.018 120.83 40.878 L 120.76 40.878 C 120.707 41.038 120.643 41.221 120.57 41.428 C 120.497 41.641 120.423 41.845 120.35 42.038 C 120.277 42.231 120.217 42.398 120.17 42.538 ZM 142.872 48.128 L 136.462 48.128 L 136.462 39.898 L 142.802 39.898 L 142.802 40.878 L 137.602 40.878 L 137.602 43.428 L 142.272 43.428 L 142.272 44.408 L 137.602 44.408 L 137.602 47.148 L 142.872 47.148 L 142.872 48.128 ZM 156.204 48.128 L 155.094 48.128 L 155.094 39.898 L 156.204 39.898 L 160.194 45.318 C 160.234 45.365 160.287 45.438 160.354 45.538 C 160.414 45.631 160.477 45.725 160.544 45.818 C 160.611 45.911 160.664 45.995 160.704 46.068 L 160.744 46.068 C 160.744 45.935 160.744 45.808 160.744 45.688 C 160.744 45.561 160.744 45.438 160.744 45.318 L 160.744 39.898 L 161.864 39.898 L 161.864 48.128 L 160.824 48.128 L 156.774 42.608 C 156.721 42.521 156.641 42.398 156.534 42.238 C 156.421 42.078 156.331 41.948 156.264 41.848 L 156.204 41.848 C 156.204 41.981 156.204 42.108 156.204 42.228 C 156.204 42.355 156.204 42.481 156.204 42.608 L 156.204 48.128 ZM 169.666 48.268 C 168.966 48.268 168.366 48.158 167.866 47.938 C 167.359 47.711 166.973 47.358 166.706 46.878 C 166.439 46.391 166.306 45.768 166.306 45.008 L 166.306 39.898 L 167.446 39.898 L 167.446 45.128 C 167.446 45.848 167.639 46.388 168.026 46.748 C 168.413 47.108 168.959 47.288 169.666 47.288 C 170.379 47.288 170.936 47.108 171.336 46.748 C 171.736 46.388 171.936 45.848 171.936 45.128 L 171.936 39.898 L 173.056 39.898 L 173.056 45.008 C 173.056 45.768 172.923 46.391 172.656 46.878 C 172.383 47.358 171.993 47.711 171.486 47.938 C 170.973 48.158 170.366 48.268 169.666 48.268 ZM 180.658 48.128 L 179.518 48.128 L 179.518 40.888 L 176.698 40.888 L 176.698 39.898 L 183.498 39.898 L 183.498 40.888 L 180.658 40.888 L 180.658 48.128 ZM 188.31 48.128 L 187.17 48.128 L 187.17 39.898 L 191.5 39.898 C 192.06 39.898 192.527 39.998 192.9 40.198 C 193.273 40.405 193.553 40.691 193.74 41.058 C 193.92 41.418 194.01 41.835 194.01 42.308 C 194.01 42.875 193.883 43.361 193.63 43.768 C 193.37 44.181 193.017 44.475 192.57 44.648 L 194.3 48.128 L 193.05 48.128 L 191.44 44.848 L 188.31 44.848 L 188.31 48.128 Z M 188.31 40.878 L 188.31 43.878 L 191.4 43.878 C 191.853 43.878 192.21 43.738 192.47 43.458 C 192.73 43.178 192.86 42.795 192.86 42.308 C 192.86 42.001 192.803 41.745 192.69 41.538 C 192.577 41.331 192.413 41.171 192.2 41.058 C 191.987 40.938 191.72 40.878 191.4 40.878 L 188.31 40.878 ZM 199.434 48.128 L 198.294 48.128 L 198.294 39.898 L 199.434 39.898 L 199.434 48.128 ZM 207.418 48.268 C 206.578 48.268 205.865 48.115 205.278 47.808 C 204.698 47.501 204.251 47.035 203.938 46.408 C 203.631 45.781 203.478 44.981 203.478 44.008 C 203.478 42.581 203.828 41.515 204.528 40.808 C 205.221 40.101 206.188 39.748 207.428 39.748 C 208.135 39.748 208.758 39.865 209.298 40.098 C 209.845 40.325 210.271 40.668 210.578 41.128 C 210.885 41.588 211.038 42.165 211.038 42.858 L 209.888 42.858 C 209.888 42.378 209.785 41.981 209.578 41.668 C 209.378 41.361 209.095 41.128 208.728 40.968 C 208.355 40.815 207.921 40.738 207.428 40.738 C 206.855 40.738 206.358 40.848 205.938 41.068 C 205.525 41.295 205.208 41.641 204.988 42.108 C 204.775 42.575 204.668 43.178 204.668 43.918 L 204.668 44.168 C 204.668 44.895 204.775 45.488 204.988 45.948 C 205.208 46.408 205.525 46.748 205.938 46.968 C 206.345 47.181 206.841 47.288 207.428 47.288 C 207.941 47.288 208.385 47.211 208.758 47.058 C 209.125 46.905 209.411 46.671 209.618 46.358 C 209.825 46.045 209.928 45.648 209.928 45.168 L 211.038 45.168 C 211.038 45.875 210.881 46.458 210.568 46.918 C 210.248 47.371 209.818 47.711 209.278 47.938 C 208.731 48.158 208.111 48.268 207.418 48.268 Z M 207.428 50.238 C 207.241 50.238 207.055 50.231 206.868 50.218 C 206.675 50.198 206.498 50.175 206.338 50.148 L 206.338 49.678 L 207.488 49.678 C 207.641 49.678 207.758 49.648 207.838 49.588 C 207.925 49.535 207.968 49.451 207.968 49.338 C 207.968 49.245 207.935 49.175 207.868 49.128 C 207.801 49.075 207.675 49.048 207.488 49.048 L 206.888 49.048 L 207.078 47.998 L 207.788 47.998 L 207.708 48.598 C 207.915 48.598 208.105 48.621 208.278 48.668 C 208.445 48.715 208.578 48.791 208.678 48.898 C 208.778 49.011 208.828 49.158 208.828 49.338 C 208.828 49.518 208.788 49.665 208.708 49.778 C 208.621 49.891 208.511 49.985 208.378 50.058 C 208.238 50.125 208.088 50.171 207.928 50.198 C 207.761 50.225 207.595 50.238 207.428 50.238 ZM 215.264 48.128 L 214.084 48.128 L 217.344 39.898 L 218.844 39.898 L 222.104 48.128 L 220.864 48.128 L 220.064 46.088 L 216.054 46.088 L 215.264 48.128 Z M 217.434 42.538 L 216.424 45.118 L 219.684 45.118 L 218.684 42.538 C 218.657 42.465 218.62 42.365 218.574 42.238 C 218.527 42.111 218.477 41.968 218.424 41.808 C 218.364 41.655 218.307 41.495 218.254 41.328 C 218.194 41.168 218.14 41.018 218.094 40.878 L 218.024 40.878 C 217.97 41.038 217.907 41.221 217.834 41.428 C 217.76 41.641 217.687 41.845 217.614 42.038 C 217.54 42.231 217.48 42.398 217.434 42.538 Z M 216.864 38.928 L 216.184 38.928 C 216.197 38.708 216.237 38.508 216.304 38.328 C 216.377 38.148 216.49 38.005 216.644 37.898 C 216.797 37.791 216.99 37.738 217.224 37.738 C 217.43 37.738 217.63 37.771 217.824 37.838 C 218.01 37.905 218.197 37.971 218.384 38.038 C 218.57 38.111 218.75 38.148 218.924 38.148 C 219.044 38.148 219.137 38.111 219.204 38.038 C 219.264 37.965 219.304 37.865 219.324 37.738 L 219.994 37.738 C 219.994 37.951 219.954 38.148 219.874 38.328 C 219.8 38.508 219.687 38.651 219.534 38.758 C 219.38 38.871 219.184 38.928 218.944 38.928 C 218.757 38.928 218.564 38.891 218.364 38.818 C 218.17 38.745 217.984 38.675 217.804 38.608 C 217.624 38.541 217.444 38.508 217.264 38.508 C 217.137 38.508 217.044 38.545 216.984 38.618 C 216.917 38.691 216.877 38.795 216.864 38.928 ZM 229.162 48.268 C 228.302 48.268 227.568 48.115 226.962 47.808 C 226.348 47.495 225.875 47.021 225.542 46.388 C 225.208 45.755 225.042 44.961 225.042 44.008 C 225.042 43.048 225.208 42.255 225.542 41.628 C 225.875 41.001 226.348 40.531 226.962 40.218 C 227.568 39.905 228.302 39.748 229.162 39.748 C 230.015 39.748 230.748 39.905 231.362 40.218 C 231.975 40.531 232.448 41.001 232.782 41.628 C 233.108 42.255 233.272 43.048 233.272 44.008 C 233.272 44.961 233.108 45.755 232.782 46.388 C 232.448 47.021 231.975 47.495 231.362 47.808 C 230.748 48.115 230.015 48.268 229.162 48.268 Z M 229.162 47.288 C 229.608 47.288 230.015 47.228 230.382 47.108 C 230.742 46.988 231.048 46.798 231.302 46.538 C 231.555 46.278 231.748 45.951 231.882 45.558 C 232.022 45.158 232.092 44.688 232.092 44.148 L 232.092 43.888 C 232.092 43.341 232.022 42.868 231.882 42.468 C 231.748 42.075 231.555 41.748 231.302 41.488 C 231.048 41.228 230.742 41.038 230.382 40.918 C 230.015 40.798 229.608 40.738 229.162 40.738 C 228.702 40.738 228.292 40.798 227.932 40.918 C 227.572 41.038 227.265 41.228 227.012 41.488 C 226.758 41.748 226.565 42.075 226.432 42.468 C 226.298 42.868 226.232 43.341 226.232 43.888 L 226.232 44.148 C 226.232 44.688 226.298 45.158 226.432 45.558 C 226.565 45.951 226.758 46.278 227.012 46.538 C 227.265 46.798 227.572 46.988 227.932 47.108 C 228.292 47.228 228.702 47.288 229.162 47.288 Z"
    transform="matrix(1, 0, 0, 1, 0, 0)" style="fill: rgb(51, 51, 51); white-space: pre;" />
</svg>