<?xml version="1.0" encoding="UTF-8" standalone="no"?>
<!-- Created with Inkscape (http://www.inkscape.org/) -->

<svg
   width="124.88792mm"
   height="171.20895mm"
   viewBox="0 0 124.88795 171.209"
   version="1.1"
   id="svg1"
   xml:space="preserve"
   inkscape:version="1.3.2 (091e20e, 2023-11-25, custom)"
   sodipodi:docname="inomeado.svg"
   xmlns:inkscape="http://www.inkscape.org/namespaces/inkscape"
   xmlns:sodipodi="http://sodipodi.sourceforge.net/DTD/sodipodi-0.dtd"
   xmlns="http://www.w3.org/2000/svg"
   xmlns:svg="http://www.w3.org/2000/svg"><sodipodi:namedview
     id="namedview1"
     pagecolor="#ffffff"
     bordercolor="#000000"
     borderopacity="0.30588235"
     inkscape:showpageshadow="2"
     inkscape:pageopacity="0.0"
     inkscape:pagecheckerboard="0"
     inkscape:deskcolor="#d1d1d1"
     inkscape:document-units="mm"
     inkscape:zoom="0.69219276"
     inkscape:cx="160.35996"
     inkscape:cy="341.66783"
     inkscape:window-width="2400"
     inkscape:window-height="1261"
     inkscape:window-x="-9"
     inkscape:window-y="-8"
     inkscape:window-maximized="1"
     inkscape:current-layer="g7" /><defs
     id="defs1" /><g
     inkscape:label="Camada 1"
     inkscape:groupmode="layer"
     id="layer1"
     transform="translate(-42.029617,-57.689977)"><g
       id="g1"
       transform="matrix(0.04109686,-0.3598061,0.38907868,0.04444036,3.1842748,224.78749)"><g
         id="g5"
         transform="matrix(0.97668595,-0.19852207,0.23213821,0.97668623,-57.101981,46.391541)"><g
           id="g7"
           transform="matrix(0.963548,-0.24740729,0.28930126,0.96354801,-62.974972,43.665049)"><g
             id="g8"
             style="opacity:0.25"><g
               id="g2"
               transform="matrix(0.991668,-0.11912768,0.13930003,0.99166781,-100.88995,142.85808)"><g
                 id="g4"><g
                   id="g6"><path
                     style="fill:#b4dfdf;stroke:#babac0"
                     d="m 465.87284,196.81773 c 37.634,-24.468 41.361,-96.272 10.388,-128.213999 -43.467,-44.826 -115.662,10.296 -74.276,66.746999 34.976,38.466 58.49,43.945 63.888,61.467 z"
                     id="path1" /></g></g></g><path
               style="fill:#b4dfdf;stroke:#83bbbb"
               d="m 117.08785,260.95178 c -30.879077,35.0898 -12.00044,102.99642 27.0841,126.11016 54.85076,32.43795 109.88424,-33.81685 51.49079,-83.12839 -44.82931,-28.41052 -68.30452,-27.43399 -78.57489,-42.98177 z"
               id="path3"
               transform="matrix(0.96354799,0.24740728,-0.28930127,0.96354802,73.311763,-26.492903)" /><path
               style="fill:#049494;stroke:#babac0"
               d="m 471.60651,67.668808 c 26.313,14.912 52.812,58.648002 63.133,94.673002 26.167,91.329 -20.131,202.4 -92.567,220.615 -25.855,6.502 -68.22,0.105 -88.458,-26.592 -25.712,-33.917 -18.79,-68.767 -4.352,-91.2 25.023,-38.884 67.896,-31.836 119.97,-69.24 7.813,-5.612 18.48,-18.677 23.634,-35.019 5.699,-18.074 5.276,-39.908 0.515,-54.62 -3.735,-11.542002 -10.175,-24.586002 -21.875,-38.617002 z"
               id="path2"
               transform="matrix(0.99166805,-0.1191278,0.13929994,0.99166803,-99.7347,140.1317)" /><path
               style="fill:#049494;stroke:#babac0;stroke-width:0.992329"
               d="M 107.18597,388.10384 C 80.147044,374.55636 58.088346,336.86726 45.827738,301.80763 14.743481,212.92508 54.608542,102.73413 125.36088,80.273287 c 40.65436,-12.904774 71.04152,-1.264472 92.67287,24.164423 27.48223,32.30716 20.70019,73.60162 5.07173,91.50382 -29.99479,34.35854 -67.77102,30.11848 -116.41954,63.8408 -7.822756,5.42224 -21.658884,21.01235 -25.898659,37.34747 -4.687886,18.06634 -3.0689,39.57183 2.482296,53.86565 4.354877,11.21296 11.487785,23.78995 23.916393,37.10839 z"
               id="path4" /></g></g></g></g></g></svg>
