<?xml version="1.0"?>
<svg xmlns="http://www.w3.org/2000/svg" viewBox="0 0 64 64" width="512" height="512"><g id="Chemotherapy"><path d="M51.293,26.293C51.077,26.509,46,31.636,46,36a6,6,0,0,0,12,0c0-4.364-5.077-9.491-5.293-9.707A1.029,1.029,0,0,0,51.293,26.293ZM52,40a4,4,0,0,1-4-4c0-2.5,2.46-5.8,4-7.536C53.54,30.2,56,33.5,56,36A4,4,0,0,1,52,40Z"/><path d="M51.293,46.293C51.077,46.509,46,51.636,46,56a6,6,0,0,0,12,0c0-4.364-5.077-9.491-5.293-9.707A1.029,1.029,0,0,0,51.293,46.293ZM52,60a4,4,0,0,1-4-4c0-2.5,2.46-5.8,4-7.536C53.54,50.2,56,53.5,56,56A4,4,0,0,1,52,60Z"/><path d="M57,8H55V6a1,1,0,0,0-1-1H50a1,1,0,0,0-1,1V8H47a1,1,0,0,0-1,1v4a1,1,0,0,0,1,1h2v2a1,1,0,0,0,1,1h4a1,1,0,0,0,1-1V14h2a1,1,0,0,0,1-1V9A1,1,0,0,0,57,8Zm-1,4H54a1,1,0,0,0-1,1v2H51V13a1,1,0,0,0-1-1H48V10h2a1,1,0,0,0,1-1V7h2V9a1,1,0,0,0,1,1h2Z"/><path d="M52,1A10,10,0,1,0,62,11,10.011,10.011,0,0,0,52,1Zm0,18a8,8,0,1,1,8-8A8.009,8.009,0,0,1,52,19Z"/><path d="M37,10a5,5,0,0,0-5,5V52a8,8,0,0,1-16,0V44h1a1,1,0,0,0,1-1V40h1a1,1,0,0,0,1-1V35.71A7.024,7.024,0,0,0,25,29V9.86A4,4,0,0,0,28,6V3a1,1,0,0,0-1-1H3A1,1,0,0,0,2,3V6A4,4,0,0,0,5,9.86V29a7.024,7.024,0,0,0,5,6.71V39a1,1,0,0,0,1,1h1v3a1,1,0,0,0,1,1h1v8a10,10,0,0,0,20,0V15a3.009,3.009,0,0,1,3-3h3V10ZM4,6V4H26V6a2.006,2.006,0,0,1-2,2H6A2.006,2.006,0,0,1,4,6ZM7,29V26h7V24H7V22h5V20H7V18h7V16H7V14h5V12H7V10H23V29a5,5,0,0,1-5,5H12A5,5,0,0,1,7,29Zm5,9V36h6v2Zm2,2h2v2H14Z"/></g></svg>
