<svg id="Layer_3" height="512" viewBox="0 0 64 64" width="512" xmlns="http://www.w3.org/2000/svg" data-name="Layer 3"><path d="m32 12a20 20 0 1 0 20 20 20.023 20.023 0 0 0 -20-20zm0 38a18 18 0 1 1 18-18 18.021 18.021 0 0 1 -18 18z"/><path d="m42.97 38.758a1 1 0 0 0 -.263-.465l-5.761-5.761a4.915 4.915 0 0 0 .054-.532 4.977 4.977 0 0 0 -2-3.974v-4.026a1.006 1.006 0 0 0 -.168-.555l-2-3a1.039 1.039 0 0 0 -1.664 0l-2 3a1.006 1.006 0 0 0 -.168.555v4.026a4.983 4.983 0 0 0 3 8.974 4.915 4.915 0 0 0 .532-.054l5.761 5.761a1 1 0 0 0 .464.263l4 1a1 1 0 0 0 .95-.263 1 1 0 0 0 .263-.949zm-11.97-14.458 1-1.5 1 1.5v2.8a5 5 0 0 0 -2 0zm-2 7.7a3 3 0 1 1 3 3 3 3 0 0 1 -3-3zm10.511 9.1-4.869-4.87a5 5 0 0 0 1.585-1.585l4.87 4.87.528 2.114z"/><path d="m31 16h2v2h-2z"/><path d="m31 46h2v2h-2z"/><path d="m46 31h2v2h-2z"/><path d="m16 31h2v2h-2z"/><path d="m41.607 20.394h2v2h-2z" transform="matrix(.707 -.707 .707 .707 -2.648 36.393)"/><path d="m20.394 41.607h2v2h-2z" transform="matrix(.707 -.707 .707 .707 -23.861 27.607)"/><path d="m20.394 20.394h2v2h-2z" transform="matrix(.707 -.707 .707 .707 -8.862 21.394)"/><path d="m59 28h-1.308a25.867 25.867 0 0 0 -4.809-11.469l2.117-2.117 1.293 1.293a1 1 0 0 0 1.414 0l3-3a1 1 0 0 0 .293-.707 9.01 9.01 0 0 0 -9-9 1 1 0 0 0 -.707.293l-3 3a1 1 0 0 0 0 1.414l1.293 1.293-2.117 2.117a25.917 25.917 0 0 0 -8.558-4.177 6.99 6.99 0 0 0 -13.822 0 25.917 25.917 0 0 0 -8.558 4.177l-2.117-2.117 1.293-1.293a1 1 0 0 0 0-1.414l-3-3a1 1 0 0 0 -.707-.293 9.01 9.01 0 0 0 -9 9 1 1 0 0 0 .293.707l3 3a1 1 0 0 0 1.414 0l1.293-1.293 2.117 2.117a25.867 25.867 0 0 0 -4.809 11.469h-1.308a4 4 0 0 0 0 8h1.308a26.04 26.04 0 0 0 11.506 17.772l-2.692 2.693a3.828 3.828 0 0 0 5.414 5.414l4.759-4.76a25.955 25.955 0 0 0 13.41 0l4.76 4.76a3.828 3.828 0 1 0 5.413-5.414l-2.692-2.693a26.04 26.04 0 0 0 11.506-17.772h1.308a4 4 0 0 0 0-8zm-6.6-22.988a7.011 7.011 0 0 1 6.589 6.588l-1.989 1.986-6.586-6.586zm-1.4 5.4 2.586 2.588-1.967 1.967a26.3 26.3 0 0 0 -2.586-2.586zm-19-7.412a4.99 4.99 0 0 1 4.725 3.438 25.7 25.7 0 0 0 -9.45 0 4.99 4.99 0 0 1 4.725-3.438zm-25 10.586-1.989-1.986a7.011 7.011 0 0 1 6.589-6.588l1.986 1.988zm3.414-.586 2.586-2.586 1.967 1.967a26.3 26.3 0 0 0 -2.586 2.586zm-5.414 21a2 2 0 0 1 0-4h1.085c-.051.661-.085 1.326-.085 2s.034 1.339.085 2zm14.122 26.465a1.829 1.829 0 0 1 -3.122-1.293 1.839 1.839 0 0 1 .536-1.293l3.043-3.043a25.923 25.923 0 0 0 3.563 1.608zm28.343-2.586a1.829 1.829 0 0 1 -1.294 3.121 1.819 1.819 0 0 1 -1.293-.535l-4.02-4.021a25.923 25.923 0 0 0 3.563-1.608zm-15.465-1.879a24 24 0 1 1 24-24 24.028 24.028 0 0 1 -24 24zm27-22h-1.085c.051-.661.085-1.326.085-2s-.034-1.339-.085-2h1.085a2 2 0 0 1 0 4z"/></svg>