<?xml version="1.0" encoding="utf-8"?>
<svg viewBox="0 0 462 382" xmlns="http://www.w3.org/2000/svg" xmlns:xlink="http://www.w3.org/1999/xlink">
  <defs>
    <symbol id="symbol-1" overflow="visible">
      <path d="m18.766-1.125c-0.96875 0.5-1.9805 0.875-3.0312 1.125-1.043 0.25781-2.1367 0.39062-3.2812 0.39062-3.3984 0-6.0898-0.94531-8.0781-2.8438-1.9922-1.9062-2.9844-4.4844-2.9844-7.7344 0-3.2578 0.99219-5.8359 2.9844-7.7344 1.9883-1.9062 4.6797-2.8594 8.0781-2.8594 1.1445 0 2.2383 0.13281 3.2812 0.39062 1.0508 0.25 2.0625 0.625 3.0312 1.125v4.2188c-0.98047-0.65625-1.9453-1.1406-2.8906-1.4531-0.94922-0.3125-1.9492-0.46875-3-0.46875-1.875 0-3.3516 0.60547-4.4219 1.8125-1.0742 1.1992-1.6094 2.8555-1.6094 4.9688 0 2.1055 0.53516 3.7617 1.6094 4.9688 1.0703 1.1992 2.5469 1.7969 4.4219 1.7969 1.0508 0 2.0508-0.14844 3-0.45312 0.94531-0.3125 1.9102-0.80078 2.8906-1.4688z"/>
    </symbol>
    <symbol id="symbol-2" overflow="visible">
      <path d="m13.734-11.141c-0.4375-0.19531-0.87109-0.34375-1.2969-0.4375-0.41797-0.10156-0.83984-0.15625-1.2656-0.15625-1.2617 0-2.2305 0.40625-2.9062 1.2188-0.67969 0.80469-1.0156 1.9531-1.0156 3.4531v7.0625h-4.8906v-15.312h4.8906v2.5156c0.625-1 1.3438-1.7266 2.1562-2.1875 0.82031-0.46875 1.8008-0.70312 2.9375-0.70312 0.16406 0 0.34375 0.011719 0.53125 0.03125 0.19531 0.011719 0.47656 0.039062 0.84375 0.078125z"/>
    </symbol>
    <symbol id="symbol-3" overflow="visible">
      <path d="m17.641-7.7031v1.4062h-11.453c0.125 1.1484 0.53906 2.0078 1.25 2.5781 0.70703 0.57422 1.7031 0.85938 2.9844 0.85938 1.0312 0 2.082-0.14844 3.1562-0.45312 1.082-0.3125 2.1914-0.77344 3.3281-1.3906v3.7656c-1.1562 0.4375-2.3125 0.76562-3.4688 0.98438-1.1562 0.22656-2.3125 0.34375-3.4688 0.34375-2.7734 0-4.9297-0.70312-6.4688-2.1094-1.5312-1.4062-2.2969-3.3789-2.2969-5.9219 0-2.5 0.75391-4.4609 2.2656-5.8906 1.5078-1.4375 3.582-2.1562 6.2188-2.1562 2.4062 0 4.332 0.73047 5.7812 2.1875 1.4453 1.4492 2.1719 3.3828 2.1719 5.7969zm-5.0312-1.625c0-0.92578-0.27344-1.6719-0.8125-2.2344-0.54297-0.57031-1.25-0.85938-2.125-0.85938-0.94922 0-1.7188 0.26562-2.3125 0.79688s-0.96484 1.2969-1.1094 2.2969z"/>
    </symbol>
    <symbol id="symbol-4" overflow="visible">
      <path d="m9.2188-6.8906c-1.0234 0-1.793 0.17188-2.3125 0.51562-0.51172 0.34375-0.76562 0.85547-0.76562 1.5312 0 0.625 0.20703 1.1172 0.625 1.4688 0.41406 0.34375 0.98828 0.51562 1.7188 0.51562 0.92578 0 1.7031-0.32812 2.3281-0.98438 0.63281-0.66406 0.95312-1.4922 0.95312-2.4844v-0.5625zm7.4688-1.8438v8.7344h-4.9219v-2.2656c-0.65625 0.92969-1.3984 1.6055-2.2188 2.0312-0.82422 0.41406-1.8242 0.625-3 0.625-1.5859 0-2.8711-0.45703-3.8594-1.375-0.99219-0.92578-1.4844-2.1289-1.4844-3.6094 0-1.7891 0.61328-3.1016 1.8438-3.9375 1.2383-0.84375 3.1797-1.2656 5.8281-1.2656h2.8906v-0.39062c0-0.76953-0.30859-1.332-0.92188-1.6875-0.61719-0.36328-1.5703-0.54688-2.8594-0.54688-1.0547 0-2.0312 0.10547-2.9375 0.3125-0.89844 0.21094-1.7305 0.52344-2.5 0.9375v-3.7344c1.0391-0.25 2.0859-0.44141 3.1406-0.57812 1.0625-0.13281 2.125-0.20312 3.1875-0.20312 2.7578 0 4.75 0.54688 5.9688 1.6406 1.2266 1.0859 1.8438 2.8555 1.8438 5.3125z"/>
    </symbol>
    <symbol id="symbol-5" overflow="visible">
      <path d="m7.7031-19.656v4.3438h5.0469v3.5h-5.0469v6.5c0 0.71094 0.14062 1.1875 0.42188 1.4375s0.83594 0.375 1.6719 0.375h2.5156v3.5h-4.1875c-1.9375 0-3.3125-0.39844-4.125-1.2031-0.80469-0.8125-1.2031-2.1797-1.2031-4.1094v-6.5h-2.4219v-3.5h2.4219v-4.3438z"/>
    </symbol>
    <symbol id="symbol-6" overflow="visible">
      <path d="m12.766-13.078v-8.2031h4.9219v21.281h-4.9219v-2.2188c-0.66797 0.90625-1.4062 1.5703-2.2188 1.9844s-1.7578 0.625-2.8281 0.625c-1.8867 0-3.4336-0.75-4.6406-2.25-1.2109-1.5-1.8125-3.4258-1.8125-5.7812 0-2.3633 0.60156-4.2969 1.8125-5.7969 1.207-1.5 2.7539-2.25 4.6406-2.25 1.0625 0 2 0.21484 2.8125 0.64062 0.82031 0.42969 1.5664 1.0859 2.2344 1.9688zm-3.2188 9.9219c1.0391 0 1.8359-0.37891 2.3906-1.1406 0.55078-0.76953 0.82812-1.8828 0.82812-3.3438 0-1.457-0.27734-2.5664-0.82812-3.3281-0.55469-0.76953-1.3516-1.1562-2.3906-1.1562-1.043 0-1.8398 0.38672-2.3906 1.1562-0.55469 0.76172-0.82812 1.8711-0.82812 3.3281 0 1.4609 0.27344 2.5742 0.82812 3.3438 0.55078 0.76172 1.3477 1.1406 2.3906 1.1406z"/>
    </symbol>
    <symbol id="symbol-7" overflow="visible">
      <path d="m10.5-3.1562c1.0508 0 1.8516-0.37891 2.4062-1.1406 0.55078-0.76953 0.82812-1.8828 0.82812-3.3438 0-1.457-0.27734-2.5664-0.82812-3.3281-0.55469-0.76953-1.3555-1.1562-2.4062-1.1562-1.0547 0-1.8594 0.38672-2.4219 1.1562-0.55469 0.77344-0.82812 1.8828-0.82812 3.3281 0 1.4492 0.27344 2.5586 0.82812 3.3281 0.5625 0.77344 1.3672 1.1562 2.4219 1.1562zm-3.25-9.9219c0.67578-0.88281 1.4219-1.5391 2.2344-1.9688 0.82031-0.42578 1.7656-0.64062 2.8281-0.64062 1.8945 0 3.4453 0.75 4.6562 2.25 1.207 1.5 1.8125 3.4336 1.8125 5.7969 0 2.3555-0.60547 4.2812-1.8125 5.7812-1.2109 1.5-2.7617 2.25-4.6562 2.25-1.0625 0-2.0078-0.21094-2.8281-0.625-0.8125-0.42578-1.5586-1.0859-2.2344-1.9844v2.2188h-4.8906v-21.281h4.8906z"/>
    </symbol>
    <symbol id="symbol-8" overflow="visible">
      <path d="m0.34375-15.312h4.8906l4.125 10.391 3.5-10.391h4.8906l-6.4375 16.766c-0.64844 1.6953-1.4023 2.8828-2.2656 3.5625-0.86719 0.6875-2 1.0312-3.4062 1.0312h-2.8438v-3.2188h1.5312c0.83203 0 1.4375-0.13672 1.8125-0.40625 0.38281-0.26172 0.67969-0.73047 0.89062-1.4062l0.14062-0.42188z"/>
    </symbol>
    <symbol id="symbol-9" overflow="visible">
      <path d="m2.5781-20.406h5.25v20.406h-5.25z"/>
    </symbol>
    <symbol id="symbol-10" overflow="visible">
      <path d="m12.422-21.281v3.2188h-2.7031c-0.6875 0-1.1719 0.125-1.4531 0.375-0.27344 0.25-0.40625 0.6875-0.40625 1.3125v1.0625h4.1875v3.5h-4.1875v11.812h-4.8906v-11.812h-2.4375v-3.5h2.4375v-1.0625c0-1.6641 0.46094-2.8984 1.3906-3.7031 0.92578-0.80078 2.3672-1.2031 4.3281-1.2031z"/>
    </symbol>
    <symbol id="symbol-11" overflow="visible">
      <path d="m17.75-9.3281v9.3281h-4.9219v-7.1406c0-1.3203-0.03125-2.2344-0.09375-2.7344s-0.16797-0.86719-0.3125-1.1094c-0.1875-0.3125-0.44922-0.55469-0.78125-0.73438-0.32422-0.17578-0.69531-0.26562-1.1094-0.26562-1.0234 0-1.8242 0.39844-2.4062 1.1875-0.58594 0.78125-0.875 1.8711-0.875 3.2656v7.5312h-4.8906v-15.312h4.8906v2.2344c0.73828-0.88281 1.5195-1.5391 2.3438-1.9688 0.83203-0.42578 1.75-0.64062 2.75-0.64062 1.7695 0 3.1133 0.54688 4.0312 1.6406 0.91406 1.0859 1.375 2.6562 1.375 4.7188z"/>
    </symbol>
    <symbol id="symbol-12" overflow="visible">
      <path d="m16.781-19.766v4.3125c-1.125-0.5-2.2266-0.875-3.2969-1.125-1.0625-0.25781-2.0703-0.39062-3.0156-0.39062-1.25 0-2.1797 0.17969-2.7812 0.53125-0.60547 0.34375-0.90625 0.88281-0.90625 1.6094 0 0.54297 0.20312 0.96875 0.60938 1.2812 0.40625 0.30469 1.1406 0.5625 2.2031 0.78125l2.25 0.45312c2.2695 0.44922 3.8789 1.1406 4.8281 2.0781 0.95703 0.92969 1.4375 2.2461 1.4375 3.9531 0 2.25-0.66797 3.9297-2 5.0312-1.3359 1.0938-3.3711 1.6406-6.1094 1.6406-1.3047 0-2.6055-0.125-3.9062-0.375-1.3047-0.23828-2.6055-0.59766-3.9062-1.0781v-4.4531c1.3008 0.69922 2.5625 1.2266 3.7812 1.5781 1.2188 0.34375 2.3906 0.51562 3.5156 0.51562 1.1562 0 2.0352-0.1875 2.6406-0.5625 0.61328-0.38281 0.92188-0.9375 0.92188-1.6562 0-0.63281-0.21094-1.125-0.625-1.4688-0.41797-0.34375-1.2461-0.65625-2.4844-0.9375l-2.0312-0.4375c-2.043-0.4375-3.5391-1.1328-4.4844-2.0938-0.9375-0.95703-1.4062-2.25-1.4062-3.875 0-2.0312 0.65625-3.5938 1.9688-4.6875s3.1953-1.6406 5.6562-1.6406c1.125 0 2.2734 0.085938 3.4531 0.25 1.1875 0.16797 2.4141 0.42188 3.6875 0.76562z"/>
    </symbol>
    <symbol id="symbol-13" overflow="visible">
      <path d="m2.3594-15.312h4.8906v15.312h-4.8906zm0-5.9688h4.8906v4h-4.8906z"/>
    </symbol>
    <symbol id="symbol-14" overflow="visible">
      <path d="m0.98438-15.312h4.7656l2.5625 10.547 2.5781-10.547h4.0938l2.5781 10.438 2.5781-10.438h4.75l-4.0312 15.312h-5.3438l-2.5781-10.531-2.5781 10.531h-5.3438z"/>
    </symbol>
    <symbol id="symbol-15" overflow="visible">
      <path d="m9.6406-12.188c-1.0859 0-1.9141 0.39062-2.4844 1.1719-0.57422 0.78125-0.85938 1.9062-0.85938 3.375s0.28516 2.5938 0.85938 3.375c0.57031 0.77344 1.3984 1.1562 2.4844 1.1562 1.0625 0 1.875-0.38281 2.4375-1.1562 0.57031-0.78125 0.85938-1.9062 0.85938-3.375s-0.28906-2.5938-0.85938-3.375c-0.5625-0.78125-1.375-1.1719-2.4375-1.1719zm0-3.5c2.6328 0 4.6914 0.71484 6.1719 2.1406 1.4766 1.418 2.2188 3.3867 2.2188 5.9062 0 2.5117-0.74219 4.4805-2.2188 5.9062-1.4805 1.418-3.5391 2.125-6.1719 2.125-2.6484 0-4.7148-0.70703-6.2031-2.125-1.4922-1.4258-2.2344-3.3945-2.2344-5.9062 0-2.5195 0.74219-4.4883 2.2344-5.9062 1.4883-1.4258 3.5547-2.1406 6.2031-2.1406z"/>
    </symbol>
    <symbol id="symbol-16" overflow="visible">
      <path d="m16.547-12.766c0.61328-0.94531 1.3477-1.6719 2.2031-2.1719 0.85156-0.5 1.7891-0.75 2.8125-0.75 1.7578 0 3.0977 0.54688 4.0156 1.6406 0.92578 1.0859 1.3906 2.6562 1.3906 4.7188v9.3281h-4.9219v-7.9844-0.35938c0.007813-0.13281 0.015625-0.32031 0.015625-0.5625 0-1.082-0.16406-1.8633-0.48438-2.3438-0.3125-0.48828-0.82422-0.73438-1.5312-0.73438-0.92969 0-1.6484 0.38672-2.1562 1.1562-0.51172 0.76172-0.77344 1.8672-0.78125 3.3125v7.5156h-4.9219v-7.9844c0-1.6953-0.14844-2.7852-0.4375-3.2656-0.29297-0.48828-0.8125-0.73438-1.5625-0.73438-0.9375 0-1.6641 0.38672-2.1719 1.1562-0.51172 0.76172-0.76562 1.8594-0.76562 3.2969v7.5312h-4.9219v-15.312h4.9219v2.2344c0.60156-0.86328 1.2891-1.5156 2.0625-1.9531 0.78125-0.4375 1.6406-0.65625 2.5781-0.65625 1.0625 0 2 0.25781 2.8125 0.76562 0.8125 0.51172 1.4258 1.2305 1.8438 2.1562z"/>
    </symbol>
    <symbol id="symbol-17" overflow="visible">
      <path d="m17.75-9.3281v9.3281h-4.9219v-7.1094c0-1.3438-0.03125-2.2656-0.09375-2.7656s-0.16797-0.86719-0.3125-1.1094c-0.1875-0.3125-0.44922-0.55469-0.78125-0.73438-0.32422-0.17578-0.69531-0.26562-1.1094-0.26562-1.0234 0-1.8242 0.39844-2.4062 1.1875-0.58594 0.78125-0.875 1.8711-0.875 3.2656v7.5312h-4.8906v-21.281h4.8906v8.2031c0.73828-0.88281 1.5195-1.5391 2.3438-1.9688 0.83203-0.42578 1.75-0.64062 2.75-0.64062 1.7695 0 3.1133 0.54688 4.0312 1.6406 0.91406 1.0859 1.375 2.6562 1.375 4.7188z"/>
    </symbol>
    <symbol id="symbol-18" overflow="visible">
      <path d="m2.5781-20.406h5.875l7.4219 14v-14h4.9844v20.406h-5.875l-7.4219-14v14h-4.9844z"/>
    </symbol>
    <symbol id="symbol-19" overflow="visible">
      <path d="m2.1875-5.9688v-9.3438h4.9219v1.5312c0 0.83594-0.007813 1.875-0.015625 3.125-0.011719 1.25-0.015625 2.0859-0.015625 2.5 0 1.2422 0.03125 2.1328 0.09375 2.6719 0.070313 0.54297 0.17969 0.93359 0.32812 1.1719 0.20703 0.32422 0.47266 0.57422 0.79688 0.75 0.32031 0.16797 0.69141 0.25 1.1094 0.25 1.0195 0 1.8203-0.39062 2.4062-1.1719 0.58203-0.78125 0.875-1.8672 0.875-3.2656v-7.5625h4.8906v15.312h-4.8906v-2.2188c-0.74219 0.89844-1.5234 1.5586-2.3438 1.9844-0.82422 0.41406-1.7344 0.625-2.7344 0.625-1.7617 0-3.1055-0.53906-4.0312-1.625-0.92969-1.082-1.3906-2.6602-1.3906-4.7344z"/>
    </symbol>
    <symbol id="symbol-20" overflow="visible">
      <path d="m2.5781-20.406h8.7344c2.5938 0 4.582 0.57812 5.9688 1.7344 1.3945 1.1484 2.0938 2.7891 2.0938 4.9219 0 2.1367-0.69922 3.7812-2.0938 4.9375-1.3867 1.1562-3.375 1.7344-5.9688 1.7344h-3.4844v7.0781h-5.25zm5.25 3.8125v5.7031h2.9219c1.0195 0 1.8047-0.25 2.3594-0.75 0.5625-0.5 0.84375-1.2031 0.84375-2.1094 0-0.91406-0.28125-1.6172-0.84375-2.1094-0.55469-0.48828-1.3398-0.73438-2.3594-0.73438z"/>
    </symbol>
    <symbol id="symbol-21" overflow="visible">
      <path d="m2.3594-15.312h4.8906v15.031c0 2.0508-0.49609 3.6172-1.4844 4.7031-0.98047 1.082-2.4062 1.625-4.2812 1.625h-2.4219v-3.2188h0.85938c0.92578 0 1.5625-0.21094 1.9062-0.625 0.35156-0.41797 0.53125-1.2461 0.53125-2.4844zm0-5.9688h4.8906v4h-4.8906z"/>
    </symbol>
    <symbol id="symbol-22" overflow="visible">
      <path d="m14.719-14.828v3.9844c-0.65625-0.45703-1.3242-0.79688-2-1.0156-0.66797-0.21875-1.3594-0.32812-2.0781-0.32812-1.3672 0-2.4336 0.40234-3.2031 1.2031-0.76172 0.79297-1.1406 1.9062-1.1406 3.3438 0 1.4297 0.37891 2.543 1.1406 3.3438 0.76953 0.79297 1.8359 1.1875 3.2031 1.1875 0.75781 0 1.4844-0.10938 2.1719-0.32812 0.6875-0.22656 1.3203-0.56641 1.9062-1.0156v4c-0.76172 0.28125-1.5391 0.48828-2.3281 0.625-0.78125 0.14453-1.5742 0.21875-2.375 0.21875-2.7617 0-4.9219-0.70703-6.4844-2.125-1.5547-1.4141-2.3281-3.3828-2.3281-5.9062 0-2.5312 0.77344-4.5039 2.3281-5.9219 1.5625-1.4141 3.7227-2.125 6.4844-2.125 0.80078 0 1.5938 0.074219 2.375 0.21875 0.78125 0.13672 1.5547 0.35156 2.3281 0.64062z"/>
    </symbol>
  </defs>
  <g transform="matrix(1, 0, 0, 1, -85.15065, -94.615028)">
    <path d="M 525.463 289.19 C 500.807 264.432 460.096 264.342 432.436 288.136 C 414.229 272.472 390.397 267.226 369.194 272.472 C 366.202 249.495 346.549 231.675 322.764 231.675 C 296.92 231.675 275.893 252.698 275.893 278.542 L 275.893 339.745 C 275.893 366.905 253.799 388.999 226.639 388.999 C 199.483 388.999 177.393 366.905 177.393 339.745 L 177.393 313.491 C 202.561 311.092 220.655 292.452 226.202 262.979 L 255.206 160.909 C 261.03 140.413 251.058 118.796 230.948 108.354 C 225.304 105.424 219.089 103.475 212.636 102.373 C 210.827 97.838 206.409 94.615 201.234 94.615 C 194.457 94.615 188.949 100.127 188.949 106.908 C 188.949 113.686 194.461 119.193 201.234 119.193 C 205.574 119.193 209.371 116.924 211.562 113.525 C 216.582 114.459 221.402 116.006 225.785 118.287 C 241.363 126.373 248.855 142.271 244.433 157.842 L 223.163 232.772 C 205.378 259.315 184.874 270.292 162.206 265.413 C 139.858 260.593 123.909 241.999 121.237 235.55 L 99.155 157.843 C 94.729 142.281 102.229 126.386 117.803 118.288 C 122.139 116.038 126.905 114.503 131.858 113.561 C 134.049 116.944 137.839 119.202 142.167 119.202 C 148.944 119.202 154.452 113.69 154.452 106.917 C 154.452 100.136 148.94 94.624 142.167 94.624 C 136.98 94.624 132.558 97.862 130.753 102.413 C 124.382 103.523 118.226 105.452 112.644 108.355 C 92.535 118.804 82.562 140.414 88.386 160.91 L 109.991 236.89 C 110.116 237.432 110.261 237.987 110.471 238.585 L 117.268 262.487 C 122.925 292.421 141.03 311.096 166.194 313.491 L 166.194 339.745 C 166.194 373.077 193.307 400.198 226.639 400.198 C 259.971 400.198 287.092 373.077 287.092 339.745 L 287.096 278.542 C 287.096 258.874 303.096 242.874 322.768 242.874 C 341.647 242.874 357.108 257.632 358.315 276.21 C 351.429 279.296 344.999 283.569 339.42 289.175 C 326.467 302.081 319.322 319.284 319.307 337.62 C 319.292 355.702 326.217 372.71 338.834 385.573 C 339.006 385.819 339.205 386.053 339.416 386.26 L 421.529 468.365 C 424.537 471.373 428.486 472.877 432.439 472.877 C 436.389 472.877 440.342 471.369 443.349 468.365 L 525.454 386.263 C 525.657 386.06 525.845 385.834 526.025 385.591 C 538.646 372.724 545.58 355.716 545.564 337.622 C 545.548 319.286 538.407 302.079 525.462 289.188 Z M 128.313 260.686 C 136.79 267.608 147.649 273.741 159.84 276.366 C 163.699 277.202 167.926 277.734 172.43 277.734 C 185.332 277.734 200.496 273.304 215.692 259.093 L 215.317 260.413 C 212.387 275.913 202.981 301.714 173.165 302.503 C 172.716 302.386 172.278 302.229 171.794 302.229 C 171.306 302.229 170.876 302.393 170.427 302.503 C 141.068 301.722 131.505 276.718 128.314 260.687 Z M 364.023 321.534 C 371.437 321.534 377.468 327.566 377.468 334.979 C 377.468 342.393 371.437 348.424 364.023 348.424 C 356.609 348.424 350.578 342.393 350.578 334.979 C 350.578 327.565 356.609 321.534 364.023 321.534 Z M 347.332 297.096 C 350.691 293.725 354.449 290.971 358.426 288.706 L 358.426 311.034 C 347.535 313.588 339.379 323.327 339.379 334.979 C 339.379 348.569 350.438 359.624 364.024 359.624 C 377.61 359.624 388.669 348.565 388.669 334.979 C 388.669 323.319 380.509 313.581 369.622 311.034 L 369.622 283.936 C 389.251 278.162 412.122 283.498 428.485 299.733 C 430.665 301.901 434.196 301.901 436.372 299.733 C 459.61 276.682 496.017 275.506 517.54 297.108 C 528.376 307.905 534.352 322.292 534.364 337.631 C 534.375 347.654 531.793 357.252 527.012 365.733 L 479.45 365.819 L 477.446 358.545 C 476.591 355.409 473.829 353.264 470.579 353.19 C 467.388 353.256 464.473 355.155 463.477 358.248 L 461.102 365.651 L 450.223 365.729 L 450.106 365.729 L 450.055 365.729 C 449.95 365.729 449.86 365.783 449.755 365.791 C 449.134 365.83 448.516 365.932 447.95 366.166 C 447.704 366.268 447.52 366.448 447.294 366.58 C 446.903 366.815 446.505 367.022 446.173 367.346 C 445.891 367.627 445.712 367.979 445.497 368.311 C 445.329 368.569 445.098 368.772 444.969 369.061 L 443.45 372.518 L 437.997 308.717 C 437.751 305.834 435.352 303.619 432.47 303.592 L 432.419 303.592 C 429.548 303.592 427.145 305.764 426.848 308.615 L 420.946 366.049 C 420.309 365.819 419.63 365.713 418.942 365.717 L 414.833 365.717 L 414.059 362.912 C 413.145 359.58 410.22 357.35 406.766 357.35 C 403.309 357.35 400.384 359.58 399.473 362.901 L 398.696 365.717 L 337.852 365.713 C 333.071 357.237 330.489 347.635 330.501 337.611 C 330.508 322.295 336.485 307.896 347.333 297.095 Z M 517.052 378.815 L 435.415 460.452 C 433.763 462.105 431.087 462.105 429.435 460.452 L 347.822 378.843 C 347.65 378.589 347.45 378.363 347.232 378.144 C 346.841 377.753 346.505 377.328 346.122 376.921 L 402.974 376.921 C 403.013 376.921 403.041 376.898 403.08 376.898 C 403.709 376.886 404.31 376.746 404.888 376.535 C 405.041 376.48 405.185 376.429 405.33 376.363 C 405.849 376.121 406.349 375.824 406.767 375.437 C 407.064 375.71 407.435 375.867 407.779 376.07 C 408.009 376.203 408.205 376.39 408.455 376.492 C 409.115 376.761 409.826 376.917 410.56 376.917 L 410.564 376.917 L 415.185 376.917 L 419.334 387.647 C 420.267 390.065 422.744 391.479 425.298 391.183 C 427.865 390.835 429.857 388.78 430.127 386.206 L 431.896 368.964 L 434.146 395.335 C 434.365 397.882 436.287 399.96 438.806 400.382 C 439.119 400.437 439.423 400.46 439.724 400.46 C 441.919 400.46 443.947 399.171 444.849 397.112 L 453.744 376.897 L 465.228 376.811 C 465.267 376.811 465.302 376.788 465.341 376.788 C 466.04 376.772 466.724 376.632 467.357 376.366 C 467.501 376.304 467.61 376.194 467.747 376.12 C 468.216 375.874 468.665 375.601 469.048 375.229 C 469.228 375.061 469.345 374.851 469.497 374.659 C 469.708 374.397 469.962 374.167 470.126 373.858 C 470.388 374.401 470.743 374.866 471.146 375.288 C 471.247 375.39 471.364 375.46 471.466 375.558 C 471.845 375.897 472.267 376.179 472.728 376.409 C 472.896 376.487 473.052 376.565 473.228 376.632 C 473.845 376.862 474.489 377.022 475.161 377.022 L 475.165 377.022 L 475.177 377.022 L 518.7 376.944 C 518.329 377.335 517.993 377.761 517.614 378.144 C 517.423 378.351 517.231 378.581 517.051 378.815 Z"/>
    <use transform="matrix(1, 0, 0, 1, 70, 644)" xlink:href="#symbol-1"/>
    <use transform="matrix(1, 0, 0, 1, 90.55078125, 644)" xlink:href="#symbol-2"/>
    <use transform="matrix(1, 0, 0, 1, 104.359375, 644)" xlink:href="#symbol-3"/>
    <use transform="matrix(1, 0, 0, 1, 123.34765625, 644)" xlink:href="#symbol-4"/>
    <use transform="matrix(1, 0, 0, 1, 142.2421875, 644)" xlink:href="#symbol-5"/>
    <use transform="matrix(1, 0, 0, 1, 155.62890625, 644)" xlink:href="#symbol-3"/>
    <use transform="matrix(1, 0, 0, 1, 174.6171875, 644)" xlink:href="#symbol-6"/>
    <use transform="matrix(1, 0, 0, 1, 204.41015625, 644)" xlink:href="#symbol-7"/>
    <use transform="matrix(1, 0, 0, 1, 224.453125, 644)" xlink:href="#symbol-8"/>
    <use transform="matrix(1, 0, 0, 1, 252.453125, 644)" xlink:href="#symbol-9"/>
    <use transform="matrix(1, 0, 0, 1, 262.8671875, 644)" xlink:href="#symbol-2"/>
    <use transform="matrix(1, 0, 0, 1, 276.6796875, 644)" xlink:href="#symbol-10"/>
    <use transform="matrix(1, 0, 0, 1, 288.859375, 644)" xlink:href="#symbol-4"/>
    <use transform="matrix(1, 0, 0, 1, 307.75390625, 644)" xlink:href="#symbol-11"/>
    <use transform="matrix(1, 0, 0, 1, 337.4375, 644)" xlink:href="#symbol-12"/>
    <use transform="matrix(1, 0, 0, 1, 357.6015625, 644)" xlink:href="#symbol-3"/>
    <use transform="matrix(1, 0, 0, 1, 376.59375, 644)" xlink:href="#symbol-5"/>
    <use transform="matrix(1, 0, 0, 1, 389.9765625, 644)" xlink:href="#symbol-13"/>
    <use transform="matrix(1, 0, 0, 1, 399.57421875, 644)" xlink:href="#symbol-4"/>
    <use transform="matrix(1, 0, 0, 1, 418.46875, 644)" xlink:href="#symbol-14"/>
    <use transform="matrix(1, 0, 0, 1, 444.3359375, 644)" xlink:href="#symbol-4"/>
    <use transform="matrix(1, 0, 0, 1, 463.23046875, 644)" xlink:href="#symbol-11"/>
    <use transform="matrix(1, 0, 0, 1, 70, 672)" xlink:href="#symbol-10"/>
    <use transform="matrix(1, 0, 0, 1, 82.18359375, 672)" xlink:href="#symbol-2"/>
    <use transform="matrix(1, 0, 0, 1, 95.9921875, 672)" xlink:href="#symbol-15"/>
    <use transform="matrix(1, 0, 0, 1, 115.2265625, 672)" xlink:href="#symbol-16"/>
    <use transform="matrix(1, 0, 0, 1, 154.15234375, 672)" xlink:href="#symbol-5"/>
    <use transform="matrix(1, 0, 0, 1, 167.53515625, 672)" xlink:href="#symbol-17"/>
    <use transform="matrix(1, 0, 0, 1, 187.46875, 672)" xlink:href="#symbol-3"/>
    <use transform="matrix(1, 0, 0, 1, 216.20703125, 672)" xlink:href="#symbol-18"/>
    <use transform="matrix(1, 0, 0, 1, 239.640625, 672)" xlink:href="#symbol-15"/>
    <use transform="matrix(1, 0, 0, 1, 258.87890625, 672)" xlink:href="#symbol-19"/>
    <use transform="matrix(1, 0, 0, 1, 278.8125, 672)" xlink:href="#symbol-11"/>
    <use transform="matrix(1, 0, 0, 1, 308.4921875, 672)" xlink:href="#symbol-20"/>
    <use transform="matrix(1, 0, 0, 1, 329.015625, 672)" xlink:href="#symbol-2"/>
    <use transform="matrix(1, 0, 0, 1, 342.8203125, 672)" xlink:href="#symbol-15"/>
    <use transform="matrix(1, 0, 0, 1, 362.05859375, 672)" xlink:href="#symbol-21"/>
    <use transform="matrix(1, 0, 0, 1, 371.65625, 672)" xlink:href="#symbol-3"/>
    <use transform="matrix(1, 0, 0, 1, 390.6484375, 672)" xlink:href="#symbol-22"/>
    <use transform="matrix(1, 0, 0, 1, 407.2421875, 672)" xlink:href="#symbol-5"/>
  </g>
</svg>